# xmcd
#
# Track frame offsets: 
#        150
#        41588
#        64458
#        82275
#        102390
#        119598
#        139086
#        160459
#        183076
#        201233
#        225758
#        243916
#        270276
#        289718
#        305820
#        319708
#        343878
#
# Disc length: 4795 seconds
#
# Revision: 0
# Processed by: cddbd v1.5.2PL0 Copyright (c) Steve Scherf et al.
# Submitted via: ExactAudioCopy v0.95a5
#
DISCID=fd12b911
DTITLE=CRIS REA - The Best Of ... part2
DYEAR=2004
DGENRE=Blues
TTITLE0=Nothing To Fear
TTITLE1=On the Beach
TTITLE2=Josephine
TTITLE3=That's What They Always Say
TTITLE4=Loving You
TTITLE5=Windy Town
TTITLE6=As Long As I Have Your Love
TTITLE7=King of the Beach
TTITLE8=Stick By You
TTITLE9=Deltics
TTITLE10=I Ain't the Fool
TTITLE11=Restless Song
TTITLE12=Whatever Happened to Benny Santini
TTITLE13=Sing a Song of Love to Me
TTITLE14=Changing Times
TTITLE15=Wired to the Moon
TTITLE16=I Can Hear Your Heart Beat
EXTD=
EXTT0=
EXTT1=
EXTT2=
EXTT3=
EXTT4=
EXTT5=
EXTT6=
EXTT7=
EXTT8=
EXTT9=
EXTT10=
EXTT11=
EXTT12=
EXTT13=
EXTT14=
EXTT15=
EXTT16=
PLAYORDER=
